<svg xmlns="http://www.w3.org/2000/svg" width="24" height="25" viewBox="0 0 24 25" fill="none">
    <path d="M5 18.4999H9.24C9.37161 18.5007 9.50207 18.4755 9.62391 18.4257C9.74574 18.3759 9.85656 18.3026 9.95 18.2099L16.87 11.2799L19.71 8.49994C19.8037 8.40698 19.8781 8.29637 19.9289 8.17452C19.9797 8.05266 20.0058 7.92195 20.0058 7.78994C20.0058 7.65793 19.9797 7.52722 19.9289 7.40536C19.8781 7.2835 19.8037 7.1729 19.71 7.07994L15.47 2.78994C15.377 2.69621 15.2664 2.62182 15.1446 2.57105C15.0227 2.52028 14.892 2.49414 14.76 2.49414C14.628 2.49414 14.4973 2.52028 14.3754 2.57105C14.2536 2.62182 14.143 2.69621 14.05 2.78994L11.23 5.61994L4.29 12.5499C4.19732 12.6434 4.12399 12.7542 4.07423 12.876C4.02446 12.9979 3.99924 13.1283 4 13.2599V17.4999C4 17.7652 4.10536 18.0195 4.29289 18.207C4.48043 18.3946 4.73478 18.4999 5 18.4999ZM14.76 4.90994L17.59 7.73994L16.17 9.15994L13.34 6.32994L14.76 4.90994ZM6 13.6699L11.93 7.73994L14.76 10.5699L8.83 16.4999H6V13.6699ZM21 20.4999H3C2.73478 20.4999 2.48043 20.6053 2.29289 20.7928C2.10536 20.9804 2 21.2347 2 21.4999C2 21.7652 2.10536 22.0195 2.29289 22.207C2.48043 22.3946 2.73478 22.4999 3 22.4999H21C21.2652 22.4999 21.5196 22.3946 21.7071 22.207C21.8946 22.0195 22 21.7652 22 21.4999C22 21.2347 21.8946 20.9804 21.7071 20.7928C21.5196 20.6053 21.2652 20.4999 21 20.4999Z" fill="#1F2024"/>
    </svg>