<svg xmlns="http://www.w3.org/2000/svg" width="24" height="25" viewBox="0 0 24 25" fill="none">
    <path fill-rule="evenodd" clip-rule="evenodd"
        d="M22 12.5C22 13.1136 21.5025 13.6111 20.8889 13.6111L13.1111 13.6111L13.1111 21.3889C13.1111 22.0025 12.6136 22.5 12 22.5C11.3863 22.5 10.8889 22.0025 10.8889 21.3889L10.8889 13.6111L3.11111 13.6111C2.49746 13.6111 2 13.1136 2 12.5C2 11.8863 2.49746 11.3889 3.11111 11.3889L10.8889 11.3889L10.8889 3.61111C10.8889 2.99746 11.3864 2.5 12 2.5C12.6137 2.5 13.1111 2.99746 13.1111 3.61111L13.1111 11.3889L20.8889 11.3889C21.5025 11.3889 22 11.8863 22 12.5Z"
        fill="#1F2024" />
</svg>