<svg xmlns="http://www.w3.org/2000/svg" width="51" height="50" viewBox="0 0 51 50" fill="none">
    <path fill-rule="evenodd" clip-rule="evenodd"
        d="M6.75008 29.167C7.90067 29.167 8.83341 30.0997 8.83341 31.2503V39.5837C8.83341 40.1362 9.05291 40.6661 9.44361 41.0568C9.83431 41.4475 10.3642 41.667 10.9167 41.667H40.0834C40.6359 41.667 41.1658 41.4475 41.5565 41.0568C41.9473 40.6661 42.1667 40.1362 42.1667 39.5837V31.2503C42.1667 30.0997 43.0995 29.167 44.2501 29.167C45.4007 29.167 46.3334 30.0997 46.3334 31.2503V39.5837C46.3334 41.2413 45.6749 42.831 44.5028 44.0031C43.3307 45.1752 41.741 45.8337 40.0834 45.8337H10.9167C9.25914 45.8337 7.66943 45.1752 6.49733 44.0031C5.32523 42.831 4.66675 41.2413 4.66675 39.5837V31.2503C4.66675 30.0997 5.59949 29.167 6.75008 29.167Z"
        fill="#55B532" />
    <path fill-rule="evenodd" clip-rule="evenodd"
        d="M13.6102 19.3602C14.4238 18.5466 15.7429 18.5466 16.5565 19.3602L25.5 28.3037L34.4435 19.3602C35.2571 18.5466 36.5762 18.5466 37.3898 19.3602C38.2034 20.1738 38.2034 21.4929 37.3898 22.3065L26.9731 32.7231C26.1595 33.5367 24.8405 33.5367 24.0269 32.7231L13.6102 22.3065C12.7966 21.4929 12.7966 20.1738 13.6102 19.3602Z"
        fill="#55B532" />
    <path fill-rule="evenodd" clip-rule="evenodd"
        d="M25.5001 4.16699C26.6507 4.16699 27.5834 5.09973 27.5834 6.25033V31.2503C27.5834 32.4009 26.6507 33.3337 25.5001 33.3337C24.3495 33.3337 23.4167 32.4009 23.4167 31.2503V6.25033C23.4167 5.09973 24.3495 4.16699 25.5001 4.16699Z"
        fill="#55B532" />
</svg>