<svg xmlns="http://www.w3.org/2000/svg" width="24" height="25" viewBox="0 0 24 25" fill="none">
<path class="path_fill" fill-rule="evenodd" clip-rule="evenodd" d="M1.46447 16.3563C2.40215 15.4186 3.67392 14.8918 5 14.8918H13C14.3261 14.8918 15.5979 15.4186 16.5355 16.3563C17.4732 17.2939 18 18.5657 18 19.8918V21.8918C18 22.4441 17.5523 22.8918 17 22.8918C16.4477 22.8918 16 22.4441 16 21.8918V19.8918C16 19.0961 15.6839 18.3331 15.1213 17.7705C14.5587 17.2079 13.7956 16.8918 13 16.8918H5C4.20435 16.8918 3.44129 17.2079 2.87868 17.7705C2.31607 18.3331 2 19.0961 2 19.8918V21.8918C2 22.4441 1.55228 22.8918 1 22.8918C0.447715 22.8918 0 22.4441 0 21.8918V19.8918C0 18.5657 0.526784 17.2939 1.46447 16.3563Z" fill="#F2F2F2"/>
<path class="path_fill" fill-rule="evenodd" clip-rule="evenodd" d="M9 4.89178C7.34315 4.89178 6 6.23493 6 7.89178C6 9.54864 7.34315 10.8918 9 10.8918C10.6569 10.8918 12 9.54864 12 7.89178C12 6.23493 10.6569 4.89178 9 4.89178ZM4 7.89178C4 5.13036 6.23858 2.89178 9 2.89178C11.7614 2.89178 14 5.13036 14 7.89178C14 10.6532 11.7614 12.8918 9 12.8918C6.23858 12.8918 4 10.6532 4 7.89178Z" fill="#F2F2F2"/>
<path class="path_fill" fill-rule="evenodd" clip-rule="evenodd" d="M19.0318 15.7718C19.1698 15.237 19.7153 14.9155 20.25 15.0535C21.3227 15.3305 22.273 15.9559 22.9517 16.8314C23.6304 17.707 23.9992 18.7832 24 19.891L24 21.8918C24 22.4441 23.5523 22.8918 23 22.8918C22.4477 22.8918 22 22.4441 22 21.8918L22 19.8925C22 19.8924 22 19.8926 22 19.8925C21.9994 19.2279 21.7782 18.582 21.371 18.0568C20.9638 17.5314 20.3936 17.1562 19.75 16.99C19.2153 16.852 18.8937 16.3065 19.0318 15.7718Z" fill="#F2F2F2"/>
<path class="path_fill" fill-rule="evenodd" clip-rule="evenodd" d="M15.0312 3.77375C15.1682 3.23872 15.713 2.91605 16.248 3.05304C17.3236 3.32841 18.2768 3.95391 18.9576 4.83092C19.6383 5.70794 20.0078 6.78657 20.0078 7.89679C20.0078 9.007 19.6383 10.0856 18.9576 10.9626C18.2768 11.8397 17.3236 12.4652 16.248 12.7405C15.713 12.8775 15.1682 12.5549 15.0312 12.0198C14.8943 11.4848 15.2169 10.94 15.752 10.803C16.3973 10.6378 16.9692 10.2625 17.3777 9.7363C17.7861 9.2101 18.0078 8.56291 18.0078 7.89679C18.0078 7.23066 17.7861 6.58348 17.3777 6.05727C16.9692 5.53106 16.3973 5.15576 15.752 4.99054C15.2169 4.85355 14.8943 4.30877 15.0312 3.77375Z" fill="#F2F2F2"/>
</svg>