<svg xmlns="http://www.w3.org/2000/svg" width="24" height="25" viewBox="0 0 24 25" fill="none">
<path class="path_fill" fill-rule="evenodd" clip-rule="evenodd" d="M2 3.89178C2 3.3395 2.44772 2.89178 3 2.89178H10C10.5523 2.89178 11 3.3395 11 3.89178V10.8918C11 11.4441 10.5523 11.8918 10 11.8918H3C2.44772 11.8918 2 11.4441 2 10.8918V3.89178ZM4 4.89178V9.89178H9V4.89178H4Z" fill="#1F2024"/>
<path class="path_fill" fill-rule="evenodd" clip-rule="evenodd" d="M13 3.89178C13 3.3395 13.4477 2.89178 14 2.89178H21C21.5523 2.89178 22 3.3395 22 3.89178V10.8918C22 11.4441 21.5523 11.8918 21 11.8918H14C13.4477 11.8918 13 11.4441 13 10.8918V3.89178ZM15 4.89178V9.89178H20V4.89178H15Z" fill="#1F2024"/>
<path class="path_fill" fill-rule="evenodd" clip-rule="evenodd" d="M13 14.8918C13 14.3395 13.4477 13.8918 14 13.8918H21C21.5523 13.8918 22 14.3395 22 14.8918V21.8918C22 22.4441 21.5523 22.8918 21 22.8918H14C13.4477 22.8918 13 22.4441 13 21.8918V14.8918ZM15 15.8918V20.8918H20V15.8918H15Z" fill="#1F2024"/>
<path class="path_fill" fill-rule="evenodd" clip-rule="evenodd" d="M2 14.8918C2 14.3395 2.44772 13.8918 3 13.8918H10C10.5523 13.8918 11 14.3395 11 14.8918V21.8918C11 22.4441 10.5523 22.8918 10 22.8918H3C2.44772 22.8918 2 22.4441 2 21.8918V14.8918ZM4 15.8918V20.8918H9V15.8918H4Z" fill="#1F2024"/>
</svg>