<svg xmlns="http://www.w3.org/2000/svg" width="24" height="25" viewBox="0 0 24 25" fill="none">
<path class="path_fill" fill-rule="evenodd" clip-rule="evenodd" d="M0 3.89185C0 3.33956 0.447715 2.89185 1 2.89185H16C16.5523 2.89185 17 3.33956 17 3.89185V16.8918C17 17.4441 16.5523 17.8918 16 17.8918H1C0.447715 17.8918 0 17.4441 0 16.8918V3.89185ZM2 4.89185V15.8918H15V4.89185H2Z" fill="#F2F2F2"/>
<path class="path_fill" fill-rule="evenodd" clip-rule="evenodd" d="M15 8.89185C15 8.33956 15.4477 7.89185 16 7.89185H20C20.2652 7.89185 20.5196 7.9972 20.7071 8.18474L23.7071 11.1847C23.8946 11.3723 24 11.6266 24 11.8918V16.8918C24 17.4441 23.5523 17.8918 23 17.8918H16C15.4477 17.8918 15 17.4441 15 16.8918V8.89185ZM17 9.89185V15.8918H22V12.3061L19.5858 9.89185H17Z" fill="#F2F2F2"/>
<path class="path_fill" fill-rule="evenodd" clip-rule="evenodd" d="M5.5 17.8918C4.67157 17.8918 4 18.5634 4 19.3918C4 20.2203 4.67157 20.8918 5.5 20.8918C6.32843 20.8918 7 20.2203 7 19.3918C7 18.5634 6.32843 17.8918 5.5 17.8918ZM2 19.3918C2 17.4588 3.567 15.8918 5.5 15.8918C7.433 15.8918 9 17.4588 9 19.3918C9 21.3248 7.433 22.8918 5.5 22.8918C3.567 22.8918 2 21.3248 2 19.3918Z" fill="#F2F2F2"/>
<path class="path_fill" fill-rule="evenodd" clip-rule="evenodd" d="M18.5 17.8918C17.6716 17.8918 17 18.5634 17 19.3918C17 20.2203 17.6716 20.8918 18.5 20.8918C19.3284 20.8918 20 20.2203 20 19.3918C20 18.5634 19.3284 17.8918 18.5 17.8918ZM15 19.3918C15 17.4588 16.567 15.8918 18.5 15.8918C20.433 15.8918 22 17.4588 22 19.3918C22 21.3248 20.433 22.8918 18.5 22.8918C16.567 22.8918 15 21.3248 15 19.3918Z" fill="#F2F2F2"/>
</svg>