<svg xmlns="http://www.w3.org/2000/svg" width="24" height="25" viewBox="0 0 24 25" fill="none">
<g clip-path="url(#clip0_1200_188)">
<path class="path_fill" fill-rule="evenodd" clip-rule="evenodd" d="M12 2.89185C9.87827 2.89185 7.84344 3.7347 6.34315 5.23499C4.84285 6.73528 4 8.77011 4 10.8918C4 13.9899 6.01574 16.9961 8.22595 19.3291C9.31061 20.474 10.3987 21.4113 11.2167 22.0627C11.5211 22.3051 11.787 22.507 12 22.6644C12.213 22.507 12.4789 22.3051 12.7833 22.0627C13.6013 21.4113 14.6894 20.474 15.774 19.3291C17.9843 16.9961 20 13.9899 20 10.8918C20 8.77011 19.1571 6.73528 17.6569 5.23499C16.1566 3.7347 14.1217 2.89185 12 2.89185ZM12 23.8918C11.4453 24.7239 11.445 24.7237 11.4448 24.7235L11.4419 24.7216L11.4352 24.7171L11.4123 24.7017C11.3928 24.6884 11.3651 24.6694 11.3296 24.6448C11.2585 24.5956 11.1565 24.524 11.0278 24.431C10.7705 24.2453 10.4064 23.9741 9.97082 23.6273C9.10133 22.9349 7.93939 21.9347 6.77405 20.7046C4.48426 18.2876 2 14.7938 2 10.8918C2 8.23968 3.05357 5.69614 4.92893 3.82078C6.8043 1.94541 9.34784 0.891846 12 0.891846C14.6522 0.891846 17.1957 1.94541 19.0711 3.82078C20.9464 5.69614 22 8.23968 22 10.8918C22 14.7938 19.5157 18.2876 17.226 20.7046C16.0606 21.9347 14.8987 22.9349 14.0292 23.6273C13.5936 23.9741 13.2295 24.2453 12.9722 24.431C12.8435 24.524 12.7415 24.5956 12.6704 24.6448C12.6349 24.6694 12.6072 24.6884 12.5877 24.7017L12.5648 24.7171L12.5581 24.7216L12.556 24.723C12.5557 24.7232 12.5547 24.7239 12 23.8918ZM12 23.8918L12.5547 24.7239C12.2188 24.9478 11.7807 24.9475 11.4448 24.7235L12 23.8918Z" fill="#F2F2F2"/>
<path class="path_fill" fill-rule="evenodd" clip-rule="evenodd" d="M12 8.89185C10.8954 8.89185 10 9.78728 10 10.8918C10 11.9964 10.8954 12.8918 12 12.8918C13.1046 12.8918 14 11.9964 14 10.8918C14 9.78728 13.1046 8.89185 12 8.89185ZM8 10.8918C8 8.68271 9.79086 6.89185 12 6.89185C14.2091 6.89185 16 8.68271 16 10.8918C16 13.101 14.2091 14.8918 12 14.8918C9.79086 14.8918 8 13.101 8 10.8918Z" fill="#F2F2F2"/>
</g>
<defs>
<clipPath id="clip0_1200_188">
<rect class="path_fill" width="24" height="24" fill="white" transform="translate(0 0.891846)"/>
</clipPath>
</defs>
</svg>