<svg xmlns="http://www.w3.org/2000/svg" width="160" height="209" viewBox="0 0 160 209" fill="none">
<path d="M9.76993 191.032C7.94825 191.032 6.20939 191.048 4.55332 191.079L4.47569 190.302L6.95979 189.619C7.21855 189.537 7.35311 189.371 7.36346 189.123C7.38416 188.346 7.39451 187.347 7.39451 186.126V170.958H2.92313L1.49478 175.087L0.625345 175.227L0.22168 169.421L0.330359 169.296C2.87656 169.338 5.31408 169.358 7.64292 169.358H11.9746C14.3034 169.358 16.7564 169.338 19.3337 169.296L19.4268 169.421L18.4022 175.103L17.5327 175.243L16.5236 170.958H12.0367V186.126C12.0367 187.347 12.047 188.346 12.0677 189.123C12.0781 189.371 12.2178 189.537 12.4869 189.619L14.9244 190.302L14.971 191.079C13.2528 191.048 11.5191 191.032 9.76993 191.032Z" fill="white"/>
<path d="M49.7742 179.699C49.7742 183.28 48.7185 186.162 46.607 188.341C44.4955 190.52 41.556 191.612 37.7885 191.612C34.0209 191.612 31.4023 190.603 29.4357 188.59C27.4691 186.576 26.4858 183.849 26.4858 180.413C26.4858 176.976 27.5468 173.995 29.6686 171.91C31.7904 169.824 34.7248 168.779 38.4716 168.779C42.2185 168.779 44.8578 169.757 46.8244 171.708C48.791 173.659 49.7742 176.324 49.7742 179.699ZM31.7024 179.9C31.7024 183.212 32.2614 185.748 33.3792 187.503C34.4971 189.257 36.1376 190.137 38.3008 190.137C40.4641 190.137 42.0114 189.34 43.031 187.746C44.0505 186.152 44.5628 183.647 44.5628 180.232C44.5628 177.023 44.0246 174.554 42.9482 172.831C41.8717 171.108 40.2053 170.243 37.9489 170.243C35.6925 170.243 34.1762 171.04 33.1877 172.645C32.1993 174.244 31.7024 176.666 31.7024 179.906V179.9Z" fill="white"/>
<path d="M65.6933 173.721V186.002C65.6933 187.14 65.7036 188.269 65.7243 189.386H71.7948L73.9218 184.977L74.8689 184.837L74.4807 190.97L74.3721 191.079C71.8155 191.048 69.3159 191.032 66.8732 191.032H63.0229C61.4806 191.032 60.0523 191.048 58.7378 191.079L58.6602 190.302L60.5853 189.728C60.8441 189.656 60.9838 189.495 61.0045 189.247C61.0149 188.833 61.02 188.367 61.0252 187.855C61.0252 187.342 61.0356 186.778 61.0356 186.152V173.778C61.0356 173.261 61.0356 172.79 61.0252 172.365C61.02 171.941 61.0097 171.553 61.0045 171.201C60.9942 170.932 60.87 170.761 60.6319 170.688L58.7067 170.083L58.6602 169.291C59.9954 169.333 61.5376 169.353 63.2868 169.353C65.036 169.353 66.6507 169.333 67.9755 169.291L68.0532 170.083L66.128 170.657C65.8796 170.72 65.745 170.875 65.7243 171.123C65.714 171.496 65.7036 172.029 65.7036 172.717C65.6984 173.405 65.6933 173.742 65.6933 173.721Z" fill="white"/>
<path d="M102.158 169.296C103.586 169.338 104.875 169.358 106.024 169.358C107.048 169.358 108.254 169.338 109.641 169.296L109.734 170.088L107.607 170.694C107.369 170.766 107.245 170.937 107.235 171.206C107.214 171.889 107.203 172.748 107.203 173.783V186.157C107.203 187.378 107.214 188.408 107.235 189.247C107.245 189.485 107.385 189.645 107.654 189.728L109.672 190.302L109.734 191.079C108.254 191.048 106.613 191.032 104.813 191.032C103.012 191.032 101.599 191.048 100.419 191.079L100.341 190.302L102.127 189.759C102.375 189.687 102.504 189.5 102.515 189.2C102.546 188.393 102.561 187.378 102.561 186.157V176.221C102.561 175.683 102.577 174.653 102.608 173.131C102.256 174.021 101.883 174.942 101.49 175.895L95.3109 191.032L93.9135 191.156L88.0138 176.454C87.6619 175.615 87.2996 174.679 86.927 173.643C86.9477 175.113 86.9581 176.081 86.9581 176.547V186.157C86.9581 187.378 86.9684 188.393 86.9891 189.2C86.9995 189.5 87.134 189.687 87.3928 189.759L89.1006 190.302L89.1472 191.079C87.9258 191.048 86.8649 191.032 85.9644 191.032C85.064 191.032 83.9099 191.048 82.4712 191.079L82.3936 190.302L84.474 189.728C84.7431 189.645 84.8828 189.485 84.8932 189.247C84.9139 188.408 84.9242 187.378 84.9242 186.157V173.783C84.9242 172.748 84.9139 171.889 84.8932 171.206C84.8828 170.937 84.7586 170.766 84.5206 170.694L82.4401 170.088L82.3936 169.296C84.1117 169.338 85.4003 169.358 86.2594 169.358C87.4394 169.358 88.6452 169.338 89.8769 169.296L95.2953 182.974C95.5334 183.564 95.7456 184.123 95.9319 184.651C96.1389 184.123 96.3562 183.564 96.584 182.974L102.158 169.296Z" fill="white"/>
<path d="M122.843 184.139L121.74 187.042C121.523 187.611 121.352 188.072 121.233 188.419C121.114 188.765 121.057 189.035 121.057 189.216C121.057 189.392 121.104 189.526 121.197 189.619C121.29 189.712 121.435 189.785 121.632 189.837L123.122 190.271L123.169 191.079C121.668 191.048 120.447 191.032 119.505 191.032C118.563 191.032 117.398 191.048 116.136 191.079L116.058 190.302L117.719 189.806C118.113 189.692 118.402 189.505 118.589 189.236C118.775 188.972 118.982 188.574 119.21 188.031L126.942 169.198L128.618 168.95L135.31 187.829C135.569 188.553 135.807 189.045 136.019 189.293C136.231 189.547 136.536 189.733 136.925 189.847L138.446 190.297L138.493 191.074C137.095 191.042 135.688 191.027 134.27 191.027C132.396 191.027 130.569 191.042 128.789 191.074L128.711 190.297L130.249 189.847C130.456 189.785 130.606 189.707 130.699 189.614C130.792 189.521 130.838 189.381 130.838 189.195C130.838 188.988 130.787 188.714 130.683 188.377C130.58 188.041 130.43 187.601 130.233 187.047L129.208 184.128H122.843V184.139ZM126.196 175.227C126.01 175.765 125.808 176.324 125.591 176.904L123.464 182.524H128.649L126.74 176.919C126.543 176.329 126.362 175.765 126.196 175.227Z" fill="white"/>
<path d="M156.078 170.771C155.415 170.513 154.696 170.383 153.92 170.383C152.823 170.383 151.891 170.704 151.13 171.346C150.37 171.987 149.987 172.815 149.987 173.83C149.987 174.44 150.111 174.963 150.359 175.398C150.608 175.833 150.939 176.221 151.353 176.562C151.767 176.904 152.238 177.209 152.776 177.478C153.309 177.747 153.858 178.017 154.432 178.286C155.064 178.586 155.7 178.912 156.342 179.274C156.984 179.631 157.558 180.056 158.065 180.547C158.572 181.039 158.986 181.624 159.302 182.312C159.618 182.995 159.778 183.823 159.778 184.796C159.778 186.897 158.986 188.548 157.403 189.749C155.819 190.949 153.728 191.55 151.13 191.55C149.257 191.55 147.409 191.255 145.588 190.665L145.495 190.525L146.317 184.936L147.28 184.781L148.444 189.531C149.19 189.873 150.018 190.044 150.929 190.044C152.243 190.044 153.304 189.707 154.106 189.04C154.908 188.372 155.312 187.477 155.312 186.359C155.312 185.728 155.188 185.195 154.939 184.749C154.691 184.31 154.355 183.916 153.93 183.57C153.506 183.223 153.025 182.917 152.486 182.643C151.948 182.374 151.389 182.105 150.81 181.836C150.178 181.525 149.547 181.199 148.915 180.858C148.284 180.516 147.72 180.102 147.223 179.616C146.726 179.129 146.323 178.544 146.012 177.866C145.702 177.189 145.546 176.366 145.546 175.403C145.546 173.426 146.302 171.853 147.813 170.683C149.324 169.514 151.286 168.929 153.697 168.929C155.229 168.929 156.973 169.167 158.929 169.643L159.023 169.783L158.076 174.782L157.222 174.922L156.088 170.761L156.078 170.771Z" fill="white"/>
<path fill-rule="evenodd" clip-rule="evenodd" d="M41.8353 111.438L51.0989 112.012L51.3939 70.2533C53.9297 70.9779 88.6243 92.191 89.2505 98.5875C89.9957 106.159 81.4929 108.715 76.9801 103.877C74.2269 100.554 75.4482 96.0827 74.8531 91.57L66.0759 91.6528C65.5946 100.425 64.9995 113.13 81.3997 113.606C94.3688 113.984 99.4405 105.936 98.069 92.9518C95.704 89.6655 45.7892 54.8519 42.0423 53.6668L41.825 111.438H41.8353Z" fill="white"/>
<path fill-rule="evenodd" clip-rule="evenodd" d="M65.8689 63.4066C73.6214 67.9711 93.5873 83.3932 97.9448 85.1786L112.058 72.8461C112.906 82.9585 111.333 109.29 114.185 111.075C118.599 113.834 121.937 111.52 122.087 106.366C122.548 90.4729 122.543 68.4006 121.606 52.6422C118.382 53.5012 101.469 71.9922 97.8879 74.9369C95.7919 74.3469 74.2734 61.7712 74.7961 56.4252C76.2762 52.6784 78.8587 49.9976 84.2098 51.2759C91.3154 52.9785 87.3253 56.922 90.1975 62.2991L97.8051 62.3301C98.2605 37.4167 75.5828 42.416 69.1086 48.6314C64.7977 52.7664 65.3928 57.2947 65.8741 63.4066H65.8689Z" fill="white"/>
<path d="M63.9385 111.438H41.8352V117.803H63.9385V111.438Z" fill="white"/>
<path fill-rule="evenodd" clip-rule="evenodd" d="M75.6706 46.2663V37.6599H44.9817V26.5901H118.718V37.6599H88.029V46.2663H75.6706Z" fill="white"/>
<path d="M75.3603 76.9707H48.8115V84.6145H75.3603V76.9707Z" fill="white"/>
<path fill-rule="evenodd" clip-rule="evenodd" d="M79.8058 143.224C55.4254 143.224 35.4802 123.278 35.4802 98.8981V50.924C35.4802 26.5436 55.4254 6.59838 79.8058 6.59838H86.28C110.66 6.59838 130.606 26.5436 130.606 50.924V98.8981C130.606 123.278 110.66 143.224 86.28 143.224H79.8058ZM86.28 0H79.8058C51.7976 0 28.8818 22.9158 28.8818 50.924V98.8981C28.8818 126.906 51.7976 149.822 79.8058 149.822H86.28C114.288 149.822 137.204 126.906 137.204 98.8981V50.924C137.204 22.9158 114.288 0 86.28 0Z" fill="white"/>
<path d="M52.9673 205.802L55.5808 205.637C55.6377 206.061 55.7515 206.387 55.9275 206.609C56.2121 206.972 56.6158 207.148 57.1385 207.148C57.5318 207.148 57.832 207.055 58.0442 206.873C58.2563 206.692 58.365 206.475 58.365 206.232C58.365 205.988 58.2615 205.797 58.0597 205.611C57.8579 205.424 57.3869 205.259 56.652 205.093C55.4462 204.824 54.5871 204.462 54.0748 204.012C53.5573 203.561 53.2985 202.992 53.2985 202.293C53.2985 201.838 53.4331 201.403 53.697 201C53.9609 200.596 54.3594 200.275 54.8925 200.042C55.4255 199.809 56.1552 199.695 57.0764 199.695C58.2149 199.695 59.0792 199.908 59.6743 200.327C60.2695 200.746 60.6266 201.424 60.7404 202.345L58.1528 202.495C58.0856 202.097 57.9407 201.802 57.7181 201.621C57.4956 201.439 57.1954 201.346 56.8073 201.346C56.4864 201.346 56.2484 201.414 56.0879 201.548C55.9275 201.683 55.8447 201.848 55.8447 202.045C55.8447 202.185 55.912 202.314 56.0465 202.428C56.1759 202.547 56.4812 202.656 56.9677 202.754C58.1684 203.013 59.0274 203.277 59.5501 203.541C60.0728 203.805 60.4455 204.136 60.6835 204.524C60.9216 204.912 61.0406 205.357 61.0406 205.838C61.0406 206.408 60.8853 206.936 60.5697 207.417C60.254 207.898 59.8141 208.26 59.25 208.514C58.6859 208.768 57.9717 208.887 57.1074 208.887C55.5963 208.887 54.5457 208.597 53.9661 208.012C53.3865 207.427 53.0553 206.692 52.9776 205.792L52.9673 205.802Z" fill="white"/>
<path d="M64.2751 199.851H72.6279V202.045H69.8281V208.742H67.0801V202.045H64.2803V199.851H64.2751Z" fill="white"/>
<path d="M75.5881 204.301C75.5881 202.852 75.9918 201.719 76.7991 200.912C77.6065 200.104 78.7347 199.701 80.1785 199.701C81.6224 199.701 82.7972 200.099 83.5993 200.891C84.4015 201.683 84.8 202.801 84.8 204.229C84.8 205.269 84.624 206.118 84.2773 206.785C83.9306 207.453 83.4234 207.971 82.761 208.338C82.0985 208.705 81.2757 208.892 80.2872 208.892C79.2988 208.892 78.4552 208.731 77.7979 208.41C77.1407 208.09 76.6076 207.588 76.1988 206.894C75.79 206.201 75.5881 205.336 75.5881 204.296V204.301ZM78.3362 204.312C78.3362 205.207 78.5018 205.854 78.8382 206.247C79.1745 206.641 79.6248 206.837 80.1992 206.837C80.7737 206.837 81.2446 206.646 81.5707 206.263C81.8967 205.88 82.0571 205.192 82.0571 204.193C82.0571 203.354 81.8863 202.744 81.55 202.361C81.2136 201.978 80.753 201.781 80.1785 201.781C79.6041 201.781 79.1797 201.978 78.8433 202.371C78.5069 202.764 78.3413 203.411 78.3413 204.317L78.3362 204.312Z" fill="white"/>
<path d="M88.8003 208.742V199.851H93.3803C94.2291 199.851 94.876 199.923 95.3262 200.068C95.7765 200.213 96.1387 200.482 96.413 200.875C96.6873 201.269 96.827 201.75 96.827 202.314C96.827 202.806 96.7235 203.235 96.5113 203.592C96.2992 203.95 96.0093 204.239 95.6419 204.462C95.409 204.602 95.083 204.721 94.6793 204.814C95.0054 204.922 95.2434 205.031 95.3935 205.14C95.497 205.212 95.6419 205.368 95.8334 205.606C96.0249 205.844 96.1543 206.03 96.2164 206.159L97.5464 208.737H94.4413L92.9715 206.02C92.7852 205.668 92.6196 205.44 92.4747 205.336C92.278 205.197 92.0503 205.129 91.8019 205.129H91.5587V208.737H88.8003V208.742ZM91.5587 203.453H92.7179C92.8421 203.453 93.0854 203.411 93.4476 203.334C93.6288 203.297 93.7788 203.204 93.8927 203.054C94.0065 202.904 94.0635 202.733 94.0635 202.537C94.0635 202.252 93.9703 202.029 93.7892 201.874C93.6081 201.719 93.2665 201.641 92.7645 201.641H91.5587V203.448V203.453Z" fill="white"/>
<path d="M100.905 199.851H108.27V201.75H103.658V203.163H107.933V204.974H103.658V206.729H108.399V208.742H100.905V199.851Z" fill="white"/>
</svg>