<svg xmlns="http://www.w3.org/2000/svg" width="24" height="25" viewBox="0 0 24 25" fill="none">
<path class="path_fill" fill-rule="evenodd" clip-rule="evenodd" d="M19.7071 5.18468C20.0976 5.5752 20.0976 6.20837 19.7071 6.59889L5.70711 20.5989C5.31658 20.9894 4.68342 20.9894 4.29289 20.5989C3.90237 20.2084 3.90237 19.5752 4.29289 19.1847L18.2929 5.18468C18.6834 4.79415 19.3166 4.79415 19.7071 5.18468Z" fill="#F2F2F2"/>
<path class="path_fill" fill-rule="evenodd" clip-rule="evenodd" d="M6.5 5.89178C5.67157 5.89178 5 6.56336 5 7.39178C5 8.22021 5.67157 8.89178 6.5 8.89178C7.32843 8.89178 8 8.22021 8 7.39178C8 6.56336 7.32843 5.89178 6.5 5.89178ZM3 7.39178C3 5.45879 4.567 3.89178 6.5 3.89178C8.433 3.89178 10 5.45879 10 7.39178C10 9.32478 8.433 10.8918 6.5 10.8918C4.567 10.8918 3 9.32478 3 7.39178Z" fill="#F2F2F2"/>
<path class="path_fill" fill-rule="evenodd" clip-rule="evenodd" d="M17.5 16.8918C16.6716 16.8918 16 17.5634 16 18.3918C16 19.2202 16.6716 19.8918 17.5 19.8918C18.3284 19.8918 19 19.2202 19 18.3918C19 17.5634 18.3284 16.8918 17.5 16.8918ZM14 18.3918C14 16.4588 15.567 14.8918 17.5 14.8918C19.433 14.8918 21 16.4588 21 18.3918C21 20.3248 19.433 21.8918 17.5 21.8918C15.567 21.8918 14 20.3248 14 18.3918Z" fill="#F2F2F2"/>
</svg>