<svg xmlns="http://www.w3.org/2000/svg" width="24" height="25" viewBox="0 0 24 25" fill="none">
<path class="path_fill" fill-rule="evenodd" clip-rule="evenodd" d="M6.63364 4.60223C6.90954 4.1238 7.52104 3.95961 7.99948 4.2355L16.9995 9.4255C17.4779 9.7014 17.6421 10.3129 17.3662 10.7913C17.0903 11.2698 16.4788 11.434 16.0004 11.1581L7.00037 5.96807C6.52193 5.69217 6.35774 5.08066 6.63364 4.60223Z" fill="#F2F2F2"/>
<path class="path_fill" fill-rule="evenodd" clip-rule="evenodd" d="M10.5021 2.29452C10.9577 2.03202 11.4742 1.89384 12 1.89384C12.5258 1.89384 13.0424 2.03203 13.4979 2.29456C13.4986 2.29496 13.4993 2.29536 13.5 2.29576L20.5 6.29575C20.9556 6.5588 21.334 6.93703 21.5973 7.3925C21.8606 7.84797 21.9995 8.36467 22 8.89076V16.8928C21.9995 17.4189 21.8606 17.9356 21.5973 18.3911C21.334 18.8465 20.9556 19.2248 20.5 19.4878L20.4961 19.49L13.5 23.4878C13.4994 23.4882 13.4988 23.4885 13.4982 23.4888C13.0426 23.7515 12.5259 23.8897 12 23.8897C11.4741 23.8897 10.9575 23.7515 10.5019 23.4889C10.5012 23.4885 10.5006 23.4882 10.5 23.4878L3.50386 19.49L3.5 19.4878C3.04439 19.2248 2.66597 18.8465 2.40269 18.3911C2.13941 17.9356 2.00054 17.4189 2 16.8928V8.89076C2.00054 8.36467 2.13941 7.84797 2.40269 7.3925C2.66597 6.93703 3.04439 6.5588 3.5 6.29576L3.50386 6.29353L10.5021 2.29452ZM12 3.89384C11.8245 3.89384 11.652 3.94004 11.5 4.02781L11.4961 4.03004L4.5 8.02781C4.49947 8.02811 4.49895 8.02842 4.49842 8.02872C4.34726 8.11636 4.22169 8.24209 4.13423 8.39339C4.04654 8.54509 4.00025 8.71716 4 8.89238V16.8912C4.00025 17.0664 4.04654 17.2385 4.13423 17.3902C4.22169 17.5415 4.34726 17.6672 4.49842 17.7548C4.49895 17.7552 4.49947 17.7555 4.5 17.7558L11.5 21.7558C11.652 21.8435 11.8245 21.8897 12 21.8897C12.1755 21.8897 12.348 21.8435 12.5 21.7558L12.5039 21.7535L19.5 17.7558C19.5005 17.7555 19.5011 17.7551 19.5016 17.7548C19.6527 17.6672 19.7783 17.5415 19.8658 17.3902C19.9535 17.2384 19.9998 17.0661 20 16.8908V8.89281C19.9998 8.71745 19.9535 8.54521 19.8658 8.39339C19.7783 8.2421 19.6527 8.11637 19.5016 8.02873C19.5011 8.02842 19.5005 8.02812 19.5 8.02781L12.5 4.02782C12.348 3.94005 12.1755 3.89384 12 3.89384Z" fill="#F2F2F2"/>
<path class="path_fill" fill-rule="evenodd" clip-rule="evenodd" d="M2.40433 7.35106C2.68088 6.873 3.2926 6.70963 3.77067 6.98618L11.9999 11.7465L20.2292 6.98618C20.7073 6.70963 21.319 6.873 21.5955 7.35106C21.8721 7.82912 21.7087 8.44085 21.2307 8.71739L12.5007 13.7674C12.1909 13.9466 11.809 13.9466 11.4992 13.7674L2.76922 8.71739C2.29116 8.44085 2.12779 7.82912 2.40433 7.35106Z" fill="#F2F2F2"/>
<path class="path_fill" fill-rule="evenodd" clip-rule="evenodd" d="M12 11.8918C12.5523 11.8918 13 12.3395 13 12.8918V22.9718C13 23.5241 12.5523 23.9718 12 23.9718C11.4477 23.9718 11 23.5241 11 22.9718V12.8918C11 12.3395 11.4477 11.8918 12 11.8918Z" fill="#F2F2F2"/>
</svg>