<svg xmlns="http://www.w3.org/2000/svg" width="24" height="25" viewBox="0 0 24 25" fill="none">
<g clip-path="url(#clip0_1200_202)">
<path class="path_fill" fill-rule="evenodd" clip-rule="evenodd" d="M12 10.8918C10.8954 10.8918 10 11.7873 10 12.8918C10 13.9964 10.8954 14.8918 12 14.8918C13.1046 14.8918 14 13.9964 14 12.8918C14 11.7873 13.1046 10.8918 12 10.8918ZM8 12.8918C8 10.6827 9.79086 8.89185 12 8.89185C14.2091 8.89185 16 10.6827 16 12.8918C16 15.101 14.2091 16.8918 12 16.8918C9.79086 16.8918 8 15.101 8 12.8918Z" fill="#F2F2F2"/>
<path class="path_fill" fill-rule="evenodd" clip-rule="evenodd" d="M12 2.89185C11.7348 2.89185 11.4804 2.9972 11.2929 3.18474C11.1054 3.37228 11 3.62663 11 3.89185V4.06583C10.9979 4.58264 10.8448 5.08757 10.5594 5.51846C10.2741 5.94935 9.86895 6.2874 9.39393 6.49099C9.30938 6.52722 9.22042 6.55154 9.12961 6.56341C8.69798 6.71456 8.23333 6.75182 7.781 6.66981C7.26 6.57534 6.77925 6.32696 6.40073 5.95671L6.39285 5.949L6.33289 5.88895C6.24002 5.79598 6.12934 5.72182 6.00794 5.6715C5.88654 5.62117 5.75642 5.59527 5.625 5.59527C5.49358 5.59527 5.36346 5.62117 5.24206 5.6715C5.12066 5.72182 5.01037 5.79558 4.9175 5.88856L4.91671 5.88935C4.82374 5.98222 4.74998 6.09251 4.69965 6.21391C4.64933 6.3353 4.62343 6.46543 4.62343 6.59685C4.62343 6.72826 4.64933 6.85839 4.69965 6.97979C4.74998 7.10118 4.82374 7.21147 4.91671 7.30435L4.98491 7.37254C5.35516 7.75105 5.60349 8.23185 5.69796 8.75285C5.79055 9.26348 5.73113 9.78981 5.52745 10.2666C5.34189 10.7532 5.01698 11.1745 4.59305 11.4777C4.16054 11.7871 3.64498 11.9591 3.11338 11.9716L3.09 11.9718H3C2.73478 11.9718 2.48043 12.0772 2.29289 12.2647C2.10536 12.4523 2 12.7066 2 12.9718C2 13.2371 2.10536 13.4914 2.29289 13.679C2.48043 13.8665 2.73478 13.9718 3 13.9718H3.17399C3.6908 13.9739 4.19572 14.1271 4.62661 14.4124C5.05601 14.6968 5.3932 15.1001 5.59701 15.573C5.80908 16.0561 5.87211 16.5916 5.77796 17.1108C5.68349 17.6318 5.43512 18.1126 5.06486 18.4911L5.05715 18.499L4.9971 18.559C4.90413 18.6518 4.82998 18.7625 4.77965 18.8839C4.72933 19.0053 4.70343 19.1354 4.70343 19.2668C4.70343 19.3983 4.72933 19.5284 4.77965 19.6498C4.82998 19.7712 4.90374 19.8815 4.99671 19.9743L4.9975 19.9751C5.09037 20.0681 5.20066 20.1419 5.32206 20.1922C5.44346 20.2425 5.57359 20.2684 5.705 20.2684C5.83641 20.2684 5.96654 20.2425 6.08794 20.1922C6.20934 20.1419 6.31963 20.0681 6.4125 19.9751L6.48069 19.9069C6.85921 19.5367 7.34 19.2884 7.861 19.1939C8.37163 19.1013 8.89796 19.1607 9.37477 19.3644C9.86132 19.55 10.2827 19.8749 10.5859 20.2988C10.8952 20.7313 11.0673 21.2469 11.0797 21.7785L11.08 21.8018V21.8918C11.08 22.1571 11.1854 22.4114 11.3729 22.599C11.5604 22.7865 11.8148 22.8918 12.08 22.8918C12.3452 22.8918 12.5996 22.7865 12.7871 22.599C12.9746 22.4114 13.08 22.1571 13.08 21.8918V21.7218L13.08 21.7179C13.0821 21.201 13.2352 20.6961 13.5206 20.2652C13.805 19.8358 14.2083 19.4986 14.6812 19.2948C15.1643 19.0828 15.6998 19.0197 16.219 19.1139C16.74 19.2084 17.2207 19.4567 17.5993 19.827L17.6071 19.8347L17.6671 19.8947C17.76 19.9877 17.8707 20.0619 17.9921 20.1122C18.1135 20.1625 18.2436 20.1884 18.375 20.1884C18.5064 20.1884 18.6365 20.1625 18.7579 20.1122C18.8793 20.0619 18.9896 19.9881 19.0825 19.8951L19.0833 19.8943C19.1763 19.8015 19.25 19.6912 19.3003 19.5698C19.3507 19.4484 19.3766 19.3183 19.3766 19.1868C19.3766 19.0554 19.3507 18.9253 19.3003 18.8039C19.25 18.6825 19.1763 18.5722 19.0833 18.4793L19.0151 18.4112C18.6448 18.0326 18.3965 17.5518 18.302 17.0308C18.2079 16.5116 18.2709 15.9762 18.4829 15.4931C18.6867 15.0201 19.024 14.6168 19.4534 14.3324C19.8843 14.0471 20.3892 13.8939 20.906 13.8919L20.91 13.8918L21 13.8918C21.2652 13.8918 21.5196 13.7865 21.7071 13.599C21.8946 13.4114 22 13.1571 22 12.8918C22 12.6266 21.8946 12.3723 21.7071 12.1847C21.5196 11.9972 21.2652 11.8918 21 11.8918H20.83L20.826 11.8918C20.3092 11.8898 19.8043 11.7366 19.3734 11.4513C18.9425 11.1659 18.6045 10.7608 18.4009 10.2858C18.3646 10.2012 18.3403 10.1123 18.3284 10.0215C18.1773 9.58982 18.14 9.12517 18.222 8.67285C18.3165 8.15185 18.5649 7.6711 18.9351 7.29258L18.9428 7.2847L19.0029 7.22474C19.0959 7.13187 19.17 7.02118 19.2203 6.89979C19.2707 6.77839 19.2966 6.64826 19.2966 6.51685C19.2966 6.38543 19.2707 6.2553 19.2203 6.13391C19.17 6.01251 19.0963 5.90222 19.0033 5.80935L19.0025 5.80856C18.9096 5.71558 18.7993 5.64182 18.6779 5.5915C18.5565 5.54117 18.4264 5.51527 18.295 5.51527C18.1636 5.51527 18.0335 5.54117 17.9121 5.5915C17.7907 5.64182 17.6804 5.71558 17.5875 5.80856L17.5193 5.87675C17.1408 6.24701 16.66 6.49534 16.139 6.58981C15.6198 6.68396 15.0843 6.62093 14.6011 6.40886C14.1282 6.20505 13.7249 5.86785 13.4406 5.43846C13.1552 5.00757 13.0021 4.50264 13 3.98583L13 3.98185V3.89185C13 3.62663 12.8946 3.37228 12.7071 3.18474C12.5196 2.9972 12.2652 2.89185 12 2.89185ZM9.87868 1.77053C10.4413 1.20792 11.2044 0.891846 12 0.891846C12.7956 0.891846 13.5587 1.20792 14.1213 1.77053C14.6839 2.33313 15 3.0962 15 3.89185V3.97934C15.0008 4.10559 15.0383 4.22889 15.1081 4.33416C15.178 4.43985 15.2774 4.52277 15.3939 4.57271L15.4038 4.57693C15.5226 4.62937 15.6544 4.64507 15.7822 4.62189C15.9086 4.59898 16.0253 4.53913 16.1177 4.44996L16.1725 4.39513C16.4511 4.1162 16.782 3.89493 17.1462 3.74395C17.5104 3.59298 17.9008 3.51527 18.295 3.51527C18.6892 3.51527 19.0796 3.59298 19.4438 3.74395C19.808 3.89493 20.1389 4.1162 20.4175 4.39513C20.6961 4.67359 20.9171 5.00417 21.0679 5.36802C21.2189 5.73222 21.2966 6.1226 21.2966 6.51685C21.2966 6.91109 21.2189 7.30147 21.0679 7.66567C20.917 8.02969 20.6959 8.36041 20.4171 8.63895C20.417 8.63908 20.4172 8.63882 20.4171 8.63895L20.3619 8.69415C20.2727 8.78652 20.2129 8.90327 20.19 9.02967C20.1668 9.15746 20.1824 9.28926 20.2349 9.40808C20.2631 9.47212 20.2845 9.53877 20.2988 9.60691C20.3461 9.67664 20.4068 9.73683 20.4777 9.78379C20.583 9.85351 20.7063 9.89105 20.8325 9.89185H21C21.7957 9.89185 22.5587 10.2079 23.1213 10.7705C23.6839 11.3331 24 12.0962 24 12.8918C24 13.6875 23.6839 14.4506 23.1213 15.0132C22.5587 15.5758 21.7957 15.8918 21 15.8918H20.9125C20.7863 15.8926 20.663 15.9302 20.5577 15.9999C20.452 16.0699 20.3691 16.1693 20.3191 16.2858L20.3149 16.2956C20.2625 16.4145 20.2468 16.5462 20.27 16.674C20.2929 16.8004 20.3527 16.9171 20.4419 17.0095L20.4967 17.0643C20.4966 17.0642 20.4968 17.0645 20.4967 17.0643C20.7755 17.3429 20.997 17.674 21.1479 18.038C21.2989 18.4022 21.3766 18.7926 21.3766 19.1868C21.3766 19.5811 21.2989 19.9715 21.1479 20.3357C20.9969 20.6999 20.7756 21.0307 20.4967 21.3093L19.79 20.6018L20.4975 21.3086C20.2189 21.5875 19.888 21.8088 19.5238 21.9597C19.1596 22.1107 18.7692 22.1884 18.375 22.1884C17.9808 22.1884 17.5904 22.1107 17.2262 21.9597C16.8622 21.8088 16.5314 21.5877 16.2529 21.309C16.2528 21.3088 16.253 21.3091 16.2529 21.309L16.1977 21.2537C16.1053 21.1646 15.9886 21.1047 15.8622 21.0818C15.7344 21.0586 15.6026 21.0743 15.4838 21.1267L15.474 21.131C15.3574 21.181 15.258 21.2638 15.1881 21.3695C15.1183 21.4748 15.0808 21.5981 15.08 21.7243V21.8918C15.08 22.6875 14.7639 23.4506 14.2013 24.0132C13.6387 24.5758 12.8757 24.8918 12.08 24.8918C11.2843 24.8918 10.5213 24.5758 9.95868 24.0132C9.39607 23.4506 9.08 22.6875 9.08 21.8918V21.8162C9.07526 21.689 9.03327 21.5659 8.95914 21.4623C8.88326 21.3562 8.77723 21.2754 8.65482 21.2304C8.63505 21.2231 8.61551 21.2152 8.59624 21.2067C8.47742 21.1543 8.34561 21.1386 8.21782 21.1618C8.09142 21.1847 7.97467 21.2446 7.8823 21.3338L7.8275 21.3886C7.82737 21.3887 7.82763 21.3884 7.8275 21.3886C7.54896 21.6673 7.21784 21.8888 6.85382 22.0397C6.48963 22.1907 6.09925 22.2684 5.705 22.2684C5.31075 22.2684 4.92037 22.1907 4.55618 22.0397C4.19233 21.8889 3.86174 21.6679 3.58329 21.3893C3.30436 21.1107 3.08308 20.7799 2.93211 20.4157C2.78113 20.0515 2.70343 19.6611 2.70343 19.2668C2.70343 18.8726 2.78113 18.4822 2.93211 18.118C3.08308 17.7538 3.30436 17.423 3.58329 17.1443L3.63811 17.0895C3.72728 16.9972 3.78713 16.8804 3.81005 16.754C3.83322 16.6262 3.81758 16.4944 3.76514 16.3756L3.76081 16.3658C3.71087 16.2493 3.62801 16.1499 3.52232 16.0799C3.41704 16.0102 3.29374 15.9726 3.1675 15.9718H3C2.20435 15.9718 1.44129 15.6558 0.87868 15.0932C0.316071 14.5306 0 13.7675 0 12.9718C0 12.1762 0.316071 11.4131 0.87868 10.8505C1.44129 10.2879 2.20435 9.97185 3 9.97185H3.07564C3.20283 9.9671 3.32591 9.92511 3.42955 9.85099C3.53564 9.77511 3.61644 9.66908 3.66146 9.54667C3.66874 9.52689 3.67663 9.50735 3.68514 9.48808C3.73758 9.36926 3.75322 9.23746 3.73005 9.10967C3.70713 8.98327 3.64728 8.86653 3.5581 8.77416L3.50329 8.71935C3.22436 8.44073 3.00308 8.10986 2.85211 7.74567C2.70113 7.38147 2.62343 6.99109 2.62343 6.59685C2.62343 6.2026 2.70113 5.81222 2.85211 5.44802C3.00301 5.084 3.22415 4.75328 3.50289 4.47474C3.78143 4.19599 4.11216 3.97485 4.47618 3.82395C4.84037 3.67298 5.23075 3.59527 5.625 3.59527C6.01925 3.59527 6.40963 3.67298 6.77382 3.82395C7.13802 3.97493 7.46888 4.1962 7.7475 4.47513L7.80231 4.52994C7.89468 4.61912 8.01142 4.67898 8.13782 4.70189C8.26561 4.72506 8.39742 4.70942 8.51624 4.65698C8.58027 4.62872 8.64693 4.60734 8.71507 4.59307C8.78479 4.54574 8.84498 4.48508 8.89195 4.41416C8.96167 4.30888 8.99921 4.18559 9 4.05934V3.89185C9 3.0962 9.31607 2.33313 9.87868 1.77053Z" fill="#F2F2F2"/>
</g>
<defs>
<clipPath id="clip0_1200_202">
<rect class="path_fill" width="24" height="24" fill="white" transform="translate(0 0.891846)"/>
</clipPath>
</defs>
</svg>