<svg xmlns="http://www.w3.org/2000/svg" width="50" height="50" viewBox="0 0 50 50" fill="none">
<path d="M24.9881 4.16667C20.8677 4.16667 16.8398 5.38852 13.4137 7.67772C9.98772 9.96691 7.31746 13.2206 5.74064 17.0274C4.16381 20.8342 3.75124 25.0231 4.5551 29.0644C5.35896 33.1057 7.34314 36.8178 10.2567 39.7314C13.1703 42.645 16.8825 44.6292 20.9237 45.433C24.965 46.2369 29.1539 45.8243 32.9607 44.2475C36.7675 42.6707 40.0212 40.0004 42.3104 36.5744C44.5996 33.1484 45.8215 29.1204 45.8215 25C45.8217 22.2641 45.283 19.5549 44.2361 17.0272C43.1892 14.4994 41.6546 12.2027 39.72 10.2681C37.7854 8.3335 35.4887 6.79894 32.961 5.75205C30.4333 4.70516 27.7241 4.16644 24.9881 4.16667ZM31.6121 35.7343C31.5341 35.9287 31.4155 36.1043 31.2641 36.2491C31.1128 36.3939 30.9322 36.5047 30.7345 36.5741C30.5368 36.6434 30.3266 36.6697 30.1179 36.6512C29.9093 36.6326 29.707 36.5697 29.5246 36.4666L23.869 32.0721L20.2392 35.4208C20.155 35.4831 20.0565 35.5231 19.9527 35.5373C19.8489 35.5515 19.7433 35.5393 19.6455 35.502L20.3413 29.276L20.3636 29.2937L20.3778 29.1707C20.3778 29.1707 30.5549 19.9051 30.9695 19.5103C31.3892 19.1166 31.2507 19.0312 31.2507 19.0312C31.2746 18.5509 30.4975 19.0312 30.4975 19.0312L17.0131 27.7062L11.3975 25.7937C11.3975 25.7937 10.535 25.4844 10.4538 24.8042C10.3684 24.1292 11.4256 23.7625 11.4256 23.7625L33.7527 14.8927C33.7527 14.8927 35.5881 14.0749 35.5881 15.4292L31.6121 35.7343Z" fill="#2588FF"/>
</svg>