<svg xmlns="http://www.w3.org/2000/svg" width="15" height="16" viewBox="0 0 15 16" fill="none">
    <g clip-path="url(#clip0_305_3955)">
    <rect width="15" height="15" transform="translate(0 0.5)" fill="#F93939"/>
    <path fill-rule="evenodd" clip-rule="evenodd" d="M-2 11.5H19V15.5H-2V11.5Z" fill="#00B731"/>
    <path fill-rule="evenodd" clip-rule="evenodd" d="M-2 0.5H19V4.5H-2V0.5Z" fill="#03BCDB"/>
    <path fill-rule="evenodd" clip-rule="evenodd" d="M0 5.5H21V10.5H0V5.5ZM5 4.415C4.844 4.47 4.675 4.5 4.5 4.5C3.672 4.5 3 3.828 3 3C3 2.172 3.672 1.5 4.5 1.5C4.675 1.5 4.844 1.53 5 1.585C4.417 1.791 4 2.347 4 3C4 3.653 4.417 4.21 5 4.415Z" fill="white"/>
    <path opacity="0.5" fill-rule="evenodd" clip-rule="evenodd" d="M6 2.5H7V3.5H6V2.5ZM7 1.5H8V2.5H7V1.5ZM8 2.5H9V3.5H8V2.5ZM9 1.5H10V2.5H9V1.5ZM10 2.5H11V3.5H10V2.5ZM9 3.5H10V4.5H9V3.5ZM7 3.5H8V4.5H7V3.5Z" fill="#1A47B8"/>
    <rect y="5.5" width="5" height="5" fill="white"/>
    </g>
    <defs>
    <clipPath id="clip0_305_3955">
    <rect width="15" height="15" fill="white" transform="translate(0 0.5)"/>
    </clipPath>
    </defs>
    </svg>