<svg xmlns="http://www.w3.org/2000/svg" width="24" height="25" viewBox="0 0 24 25" fill="none">
    <g clip-path="url(#clip0_1227_3256)">
        <path fill-rule="evenodd" clip-rule="evenodd"
            d="M11 4.5C11 5.05228 10.5523 5.5 10 5.5L3 5.5C2.44772 5.5 2 5.05228 2 4.5C2 3.94771 2.44772 3.5 3 3.5L10 3.5C10.5523 3.5 11 3.94772 11 4.5Z"
            fill="#1F2024" />
        <path fill-rule="evenodd" clip-rule="evenodd"
            d="M22 4.5C22 5.05228 21.5523 5.5 21 5.5L14 5.5C13.4477 5.5 13 5.05228 13 4.5C13 3.94771 13.4477 3.5 14 3.5L21 3.5C21.5523 3.5 22 3.94772 22 4.5Z"
            fill="#1F2024" />
        <path fill-rule="evenodd" clip-rule="evenodd"
            d="M13 12.5C13 13.0523 12.5523 13.5 12 13.5L3 13.5C2.44771 13.5 2 13.0523 2 12.5C2 11.9477 2.44771 11.5 3 11.5L12 11.5C12.5523 11.5 13 11.9477 13 12.5Z"
            fill="#1F2024" />
        <path fill-rule="evenodd" clip-rule="evenodd"
            d="M22 12.5C22 13.0523 21.5523 13.5 21 13.5L16 13.5C15.4477 13.5 15 13.0523 15 12.5C15 11.9477 15.4477 11.5 16 11.5L21 11.5C21.5523 11.5 22 11.9477 22 12.5Z"
            fill="#1F2024" />
        <path fill-rule="evenodd" clip-rule="evenodd"
            d="M9 20.5C9 21.0523 8.55228 21.5 8 21.5L3 21.5C2.44772 21.5 2 21.0523 2 20.5C2 19.9477 2.44772 19.5 3 19.5L8 19.5C8.55228 19.5 9 19.9477 9 20.5Z"
            fill="#1F2024" />
        <path fill-rule="evenodd" clip-rule="evenodd"
            d="M22 20.5C22 21.0523 21.5523 21.5 21 21.5L12 21.5C11.4477 21.5 11 21.0523 11 20.5C11 19.9477 11.4477 19.5 12 19.5L21 19.5C21.5523 19.5 22 19.9477 22 20.5Z"
            fill="#1F2024" />
        <path fill-rule="evenodd" clip-rule="evenodd"
            d="M10 0.5C10.5523 0.5 11 0.947715 11 1.5L11 7.5C11 8.05228 10.5523 8.5 10 8.5C9.44771 8.5 9 8.05228 9 7.5L9 1.5C9 0.947715 9.44772 0.5 10 0.5Z"
            fill="#1F2024" />
        <path fill-rule="evenodd" clip-rule="evenodd"
            d="M16 8.5C16.5523 8.5 17 8.94772 17 9.5L17 15.5C17 16.0523 16.5523 16.5 16 16.5C15.4477 16.5 15 16.0523 15 15.5L15 9.5C15 8.94772 15.4477 8.5 16 8.5Z"
            fill="#1F2024" />
        <path fill-rule="evenodd" clip-rule="evenodd"
            d="M8 16.5C8.55228 16.5 9 16.9477 9 17.5L9 23.5C9 24.0523 8.55228 24.5 8 24.5C7.44771 24.5 7 24.0523 7 23.5L7 17.5C7 16.9477 7.44772 16.5 8 16.5Z"
            fill="#1F2024" />
    </g>
    <defs>
        <clipPath id="clip0_1227_3256">
            <rect width="24" height="24" fill="white" transform="translate(24 0.5) rotate(90)" />
        </clipPath>
    </defs>
</svg>